<?xml version="1.0" standalone="no"?>
<!DOCTYPE svg PUBLIC "-//W3C//DTD SVG 20010904//EN"
 "http://www.w3.org/TR/2001/REC-SVG-20010904/DTD/svg10.dtd">
<svg version="1.0" xmlns="http://www.w3.org/2000/svg"
 width="786.000000pt" height="786.000000pt" viewBox="0 0 786.000000 786.000000"
 preserveAspectRatio="xMidYMid meet">
<metadata>
Created by potrace 1.14, written by Peter Selinger 2001-2017
</metadata>
<g transform="translate(0.000000,786.000000) scale(0.100000,-0.100000)"
fill="#000000" stroke="none">
<path d="M2939 6756 c-5 -6 -260 -19 -319 -17 -35 1 -61 -6 -110 -33 -155 -83
-140 -79 -320 -82 -290 -6 -454 -18 -500 -37 -14 -5 -34 -12 -45 -14 -47 -8
-180 -58 -210 -79 -31 -21 -80 -41 -80 -33 0 2 -20 -10 -45 -27 -53 -36 -103
-57 -191 -79 -35 -9 -82 -24 -104 -34 -54 -25 -76 -33 -99 -38 -19 -3 -167
-81 -176 -93 -3 -3 -21 -17 -40 -30 -19 -14 -39 -28 -45 -33 -5 -4 -35 -25
-65 -47 -62 -45 -108 -80 -124 -95 -10 -9 -58 -41 -111 -73 -11 -6 -47 -26
-80 -42 -32 -17 -64 -35 -70 -39 -5 -5 -48 -20 -95 -35 -90 -29 -110 -40 -110
-62 0 -12 6 -12 33 2 17 9 35 21 38 26 3 5 8 9 10 8 22 -10 247 88 327 141 73
49 250 181 291 215 20 18 52 39 71 47 19 9 69 35 110 58 75 41 193 88 343 135
43 14 125 50 182 80 57 30 109 54 117 54 7 0 26 7 43 16 25 13 66 24 220 60
28 7 159 13 365 18 155 4 183 7 243 29 37 14 86 37 108 53 40 27 43 28 207 31
92 2 191 7 220 12 29 4 96 7 150 6 77 -2 110 -7 162 -28 169 -66 164 -65 284
-83 69 -10 75 -12 111 -39 29 -22 95 -113 95 -130 0 -3 -9 -5 -21 -5 -18 0
-16 -4 15 -34 20 -18 36 -38 36 -45 0 -24 19 -10 22 17 l3 27 100 -3 c110 -4
233 -25 280 -49 16 -9 51 -30 76 -48 28 -20 72 -39 112 -48 81 -18 149 -60
212 -130 93 -103 180 -189 205 -201 27 -14 86 -26 165 -32 81 -7 112 -22 160
-77 25 -29 75 -73 112 -98 60 -40 68 -49 71 -81 2 -22 -3 -41 -12 -51 -8 -8
-14 -16 -13 -18 1 -3 -4 2 -10 10 -7 8 -13 20 -13 27 0 6 -17 23 -38 38 -63
43 -150 43 -179 -1 -22 -34 -3 -93 41 -130 19 -15 44 -45 56 -65 25 -43 60
-52 60 -16 0 14 -24 45 -65 85 -65 63 -77 90 -50 113 21 17 114 3 142 -22 12
-11 30 -45 39 -75 19 -61 30 -72 51 -50 11 10 17 42 20 104 4 97 0 109 -56
137 -43 23 -119 92 -136 125 -15 31 -121 67 -225 77 -91 8 -131 35 -284 188
-131 131 -132 132 -207 154 -42 12 -87 30 -100 40 -124 94 -173 109 -394 121
-71 4 -135 10 -142 14 -6 4 -15 22 -18 40 -15 68 -107 151 -180 162 -22 4 -53
8 -70 11 -82 12 -140 28 -168 44 -59 35 -180 60 -285 60 -54 0 -101 -2 -103
-4z"/>
<path d="M3100 6402 c-27 -15 -36 -26 -38 -52 l-4 -34 43 39 42 38 81 -7 c45
-3 100 -6 123 -6 33 0 48 -6 75 -33 18 -18 40 -43 50 -57 12 -19 19 -22 28
-13 18 17 -14 68 -65 103 -37 27 -49 29 -170 35 -117 5 -134 4 -165 -13z"/>
<path d="M3545 6393 c9 -46 -12 -113 -46 -144 -35 -32 -37 -43 -6 -34 37 12
64 44 76 91 10 39 9 49 -9 82 l-21 37 6 -32z"/>
<path d="M3706 6315 c19 -46 18 -68 -4 -88 -22 -20 -32 -13 -32 24 0 29 -63
95 -81 84 -16 -10 -10 -25 14 -34 22 -9 47 -64 47 -105 0 -42 60 -25 85 24 21
40 19 72 -6 104 -29 37 -41 32 -23 -9z"/>
<path d="M3232 6311 c-22 -18 -36 -43 -46 -83 -5 -23 -3 -28 12 -28 12 0 26
16 40 46 16 31 32 50 52 57 17 6 30 15 30 19 0 14 -67 5 -88 -11z"/>
<path d="M2808 6247 c-39 -32 -35 -37 14 -20 64 22 100 14 117 -25 8 -18 20
-31 25 -29 14 4 38 76 30 88 -3 5 -40 9 -82 9 -65 -1 -81 -4 -104 -23z"/>
<path d="M2843 6124 c-13 -13 -23 -33 -23 -44 0 -19 3 -18 33 10 28 27 37 31
76 27 23 -3 50 -12 58 -20 12 -12 21 -13 40 -4 32 14 25 28 -23 44 -59 20
-134 14 -161 -13z"/>
<path d="M3260 6135 c0 -7 5 -17 10 -20 26 -16 0 -165 -29 -165 -5 0 -11 19
-14 41 -3 23 -14 51 -25 61 -19 19 -19 19 -15 -54 3 -40 11 -79 18 -87 45 -47
125 97 106 190 -7 33 -51 63 -51 34z"/>
<path d="M3819 6116 c6 -7 29 -16 51 -20 27 -4 45 -15 60 -36 12 -16 18 -34
15 -40 -3 -5 -1 -10 5 -10 6 0 8 -10 4 -25 -4 -15 -2 -25 4 -25 7 0 6 -14 -3
-40 -18 -50 -11 -70 24 -70 40 0 88 35 106 77 40 91 46 100 85 112 20 6 47 11
59 11 31 0 26 17 -7 25 -59 13 -124 -34 -141 -102 -8 -29 -23 -51 -50 -72 -21
-17 -42 -31 -45 -31 -11 0 -6 36 8 56 18 23 11 62 -20 125 -29 58 -61 79 -120
79 -38 0 -44 -2 -35 -14z"/>
<path d="M2970 6011 c-82 -12 -110 -46 -95 -114 18 -86 17 -112 -4 -139 -30
-38 -73 -29 -52 10 16 30 -1 65 -45 91 -40 24 -71 22 -99 -5 -22 -22 -12 -28
25 -16 57 20 100 -17 85 -75 -8 -33 19 -63 56 -63 45 0 79 50 79 115 0 30 -5
66 -10 80 -19 51 10 74 100 80 57 3 90 13 90 26 0 5 -13 9 -29 9 -16 0 -35 2
-43 4 -7 2 -33 0 -58 -3z"/>
<path d="M4135 5931 c8 -9 32 -15 52 -16 32 0 40 -5 52 -29 12 -26 11 -38 -9
-107 -12 -42 -20 -85 -18 -95 5 -28 60 -22 97 9 17 14 34 27 38 29 23 9 55 70
49 93 -9 36 -18 31 -46 -27 -23 -49 -85 -107 -99 -93 -11 12 -9 40 6 69 21 41
21 128 -1 161 -15 23 -22 25 -76 23 -53 -2 -58 -4 -45 -17z"/>
<path d="M3089 5903 c-13 -16 -12 -17 4 -4 16 13 21 21 13 21 -2 0 -10 -8 -17
-17z"/>
<path d="M3208 5808 l-36 -61 -77 -1 c-64 -1 -79 -4 -91 -20 -15 -22 -17 -70
-4 -101 7 -16 9 -11 9 22 1 47 16 60 72 67 35 3 107 -11 126 -27 7 -5 43 -9
79 -8 86 1 136 -25 159 -82 15 -37 15 -42 -3 -78 -18 -37 -18 -39 -2 -39 33 0
44 31 41 113 -1 17 -15 42 -38 67 -37 39 -40 40 -111 41 -40 1 -75 5 -77 9 -3
4 6 15 19 24 44 28 79 83 72 111 -8 32 -22 25 -31 -15 -7 -33 -48 -70 -76 -70
-24 0 -24 15 0 32 21 15 32 69 16 74 -5 2 -26 -24 -47 -58z"/>
<path d="M3930 5773 c0 -69 47 -120 126 -137 17 -4 44 -20 59 -36 25 -26 28
-36 30 -112 1 -46 -1 -94 -5 -108 -6 -23 -61 -70 -81 -70 -18 0 -8 30 18 54
27 25 27 27 15 73 -24 89 -83 153 -127 137 -21 -8 -19 -24 3 -24 30 0 63 -30
83 -77 26 -60 24 -73 -11 -106 -33 -32 -34 -35 -20 -71 11 -30 43 -35 76 -11
18 12 24 12 44 -2 32 -22 51 -74 41 -110 -17 -58 -42 -93 -81 -113 -69 -35
-50 -65 38 -61 44 2 65 10 105 37 58 40 91 41 119 4 25 -34 43 -126 34 -174
-7 -38 -8 -39 -19 -15 -7 13 -34 35 -62 48 -45 21 -53 22 -101 12 -42 -10 -61
-21 -93 -57 -45 -48 -51 -51 -51 -30 0 8 -7 17 -16 20 -24 9 -26 8 -14 -15 13
-24 6 -65 -25 -135 -20 -46 -27 -52 -69 -64 -51 -14 -54 -19 -28 -43 23 -21
41 -21 69 1 23 17 83 125 83 148 0 7 30 45 67 83 61 66 69 71 107 71 45 -1 77
-22 115 -77 68 -99 185 55 197 260 3 45 0 52 -52 112 -49 59 -54 69 -54 114 0
35 -4 51 -16 55 -24 9 -24 9 -24 -28 0 -64 12 -93 61 -147 48 -53 49 -56 49
-117 0 -66 -30 -174 -57 -204 -31 -34 -43 -22 -43 41 0 78 -16 161 -37 183
-24 26 -123 26 -140 -1 -14 -23 -68 -51 -97 -51 -21 1 -21 1 -1 15 38 27 53
46 60 78 14 63 16 116 5 156 -9 34 -15 41 -36 41 -21 0 -25 3 -18 18 14 30 17
243 4 267 -7 13 -39 34 -74 49 -33 15 -68 30 -76 35 -24 13 -60 72 -60 97 0
13 -4 24 -10 24 -5 0 -10 -17 -10 -37z"/>
<path d="M2330 5761 c-33 -9 -70 -66 -70 -107 0 -45 30 -100 85 -153 93 -91
135 -214 101 -294 -18 -44 -36 -41 -36 7 0 19 -9 54 -20 80 -33 74 -92 100
-269 120 -79 9 -160 -54 -131 -102 8 -15 9 -14 10 4 0 27 30 53 66 60 16 3 68
0 117 -7 142 -19 197 -68 197 -176 0 -25 -7 -36 -34 -52 -37 -23 -46 -44 -46
-109 0 -59 14 -82 50 -82 22 0 37 -11 69 -51 22 -28 43 -66 47 -85 4 -23 18
-44 40 -60 69 -53 89 -118 62 -206 -13 -46 -42 -67 -56 -42 -5 9 -7 38 -4 64
7 77 -20 133 -82 171 -28 18 -67 44 -87 60 -29 23 -43 27 -73 23 -21 -2 -47
-9 -57 -15 -17 -9 -19 -6 -19 22 0 18 7 40 16 50 22 25 14 44 -10 26 -15 -11
-22 -33 -27 -87 -9 -78 -43 -161 -81 -197 -13 -12 -40 -25 -61 -28 l-39 -8 16
31 c8 16 22 32 30 35 19 8 39 106 30 154 -9 54 -50 132 -87 167 -18 17 -35 32
-39 32 -5 1 -10 3 -13 4 -14 7 -33 5 -62 -7 -41 -17 -40 -17 -47 10 -3 13 -26
54 -50 91 -42 64 -44 71 -39 120 5 48 5 50 -12 34 -29 -27 -22 -92 16 -152 48
-75 69 -122 69 -150 0 -38 -28 -100 -51 -115 -34 -20 -43 -1 -28 58 12 48 11
52 -17 108 -42 81 -76 98 -212 107 -83 5 -119 3 -159 -9 -77 -23 -95 -47 -91
-117 3 -54 2 -57 -23 -60 -19 -3 -34 4 -54 23 -15 15 -36 27 -46 26 -25 -2
-24 -9 9 -39 41 -39 69 -50 117 -47 25 2 47 0 51 -4 4 -4 25 -7 46 -7 72 0
193 -76 225 -142 31 -63 33 -74 19 -94 -17 -23 -32 -12 -40 29 -10 51 -97 127
-147 127 -38 0 -95 -26 -113 -52 -28 -39 -20 -76 27 -127 62 -70 99 -149 113
-242 4 -26 0 -42 -15 -60 -28 -34 -56 -16 -57 37 0 21 -9 54 -20 72 -10 19
-27 47 -36 64 -9 17 -29 43 -44 59 -22 23 -30 26 -51 18 -34 -13 -33 -13 -33
32 0 33 -6 46 -38 75 -20 19 -61 51 -89 70 -51 35 -55 36 -115 28 -35 -4 -89
-8 -121 -8 -59 -1 -67 -5 -43 -25 11 -9 35 -9 101 0 123 16 167 7 216 -44 57
-58 69 -86 59 -131 -13 -58 -25 -63 -34 -14 -7 42 -33 74 -77 94 -59 26 -100
23 -144 -11 l-38 -28 -28 34 c-31 37 -38 26 -13 -22 18 -35 11 -80 -18 -121
-18 -27 -18 -27 2 -38 27 -14 37 -7 45 33 12 57 53 116 92 132 54 23 79 18
121 -19 46 -43 36 -62 -25 -48 -55 13 -102 -11 -126 -61 -17 -37 -17 -44 -2
-136 20 -117 11 -168 -35 -201 -35 -25 -41 -18 -30 40 5 25 9 69 10 98 0 49
-3 55 -45 95 -25 24 -45 42 -45 40 0 -2 -17 6 -37 17 -53 28 -71 25 -129 -19
-28 -21 -56 -36 -62 -32 -6 3 -14 20 -18 36 -9 39 -42 85 -60 85 -11 0 -10 -6
6 -28 12 -16 25 -46 30 -68 12 -50 13 -131 1 -138 -11 -7 -36 30 -45 68 -4 15
-27 49 -51 75 -38 39 -45 43 -45 24 0 -11 13 -32 29 -46 18 -15 34 -42 41 -68
7 -24 23 -56 36 -70 14 -14 27 -42 30 -61 6 -31 2 -38 -37 -71 -54 -47 -76
-50 -54 -7 8 16 15 54 15 86 0 52 -4 61 -42 109 -45 55 -102 93 -114 74 -3 -5
-13 -9 -22 -8 -10 1 -30 -3 -47 -10 -16 -6 -35 -13 -40 -15 -14 -5 -62 -103
-70 -143 -4 -18 -2 -65 4 -105 6 -40 13 -119 15 -175 5 -117 17 -147 77 -195
22 -18 61 -65 86 -105 44 -71 114 -143 139 -143 6 0 31 -11 55 -24 25 -14 85
-32 139 -41 52 -9 104 -20 115 -25 23 -9 58 7 114 49 42 32 112 35 217 11 57
-13 69 -19 69 -35 0 -16 -6 -20 -35 -19 -26 0 -38 -5 -47 -21 -23 -42 -7 -61
70 -83 40 -12 81 -19 92 -17 11 2 27 4 36 4 8 1 46 19 83 42 37 22 78 42 90
45 28 5 113 -36 159 -76 48 -42 72 -103 56 -142 -18 -43 -44 -33 -44 17 0 50
-21 80 -70 100 -80 34 -247 -11 -280 -76 -15 -28 -15 -32 2 -57 l18 -27 3 35
c3 33 26 70 43 70 4 0 11 -16 15 -36 5 -29 20 -47 75 -92 51 -41 69 -63 69
-80 0 -14 5 -53 12 -88 12 -68 4 -94 -32 -94 -22 0 -30 19 -30 74 0 96 -93
120 -178 45 -56 -49 -111 -55 -138 -14 -9 14 -25 25 -35 25 -26 0 -24 -5 13
-46 24 -26 39 -34 55 -31 24 4 26 1 38 -63 19 -93 89 -166 190 -196 73 -22
102 -19 135 11 24 22 105 55 134 55 20 0 66 58 73 91 7 36 36 55 98 62 28 4
63 8 79 11 47 7 126 -40 126 -75 0 -20 -12 -18 -66 8 -45 23 -81 11 -89 -29
-6 -26 -3 -35 15 -50 22 -18 100 -26 100 -10 0 13 121 52 158 52 18 0 46 -7
61 -15 16 -8 31 -11 35 -8 3 4 6 1 6 -5 0 -7 6 -12 14 -12 7 0 30 -11 50 -25
20 -14 43 -25 50 -25 21 0 48 -48 41 -71 -9 -26 -19 -22 -47 20 -18 27 -36 39
-83 53 -121 36 -159 31 -211 -29 -29 -34 -33 -35 -63 -25 -40 14 -39 9 4 -29
40 -36 60 -94 52 -153 -6 -44 -28 -66 -64 -66 -18 0 -23 6 -23 25 0 14 5 34
12 44 10 16 7 26 -15 58 -15 21 -44 48 -65 60 -81 46 -210 9 -211 -59 -1 -16
4 -28 9 -28 6 0 10 4 10 9 0 21 53 71 75 71 43 0 55 -10 55 -47 0 -47 20 -81
80 -132 85 -72 201 -102 265 -69 17 9 45 34 63 57 45 56 81 73 140 66 73 -8
105 -22 142 -60 33 -34 36 -35 84 -29 28 4 59 15 70 26 11 10 27 19 35 19 9 1
23 2 31 3 8 1 35 -4 60 -10 25 -7 65 -15 90 -17 65 -8 91 -17 130 -45 19 -14
36 -26 37 -26 6 -4 13 -96 7 -96 -5 1 -19 22 -31 48 -24 51 -65 82 -108 82
-35 0 -152 -57 -170 -83 -8 -12 -15 -32 -15 -44 0 -13 -6 -23 -14 -23 -23 0
-39 28 -39 71 0 50 -21 47 -25 -4 -5 -52 20 -93 65 -107 49 -16 63 -28 79 -67
8 -17 25 -48 39 -69 32 -46 32 -77 0 -141 -37 -74 -90 -82 -64 -10 7 21 9 51
5 79 -13 87 -97 136 -212 123 -59 -6 -78 -15 -104 -50 -33 -45 -68 -76 -75
-65 -4 6 -14 9 -22 8 -29 -5 -25 21 6 37 25 12 31 22 31 48 0 29 5 35 35 46
41 14 82 64 91 109 10 48 -8 38 -40 -23 -24 -46 -34 -56 -62 -61 -19 -3 -45
-3 -58 0 -34 8 -42 -11 -16 -39 26 -28 20 -65 -11 -65 -27 0 -45 -41 -30 -69
7 -11 16 -21 20 -21 26 0 40 -114 18 -144 -18 -25 -44 -11 -65 38 -23 50 -82
111 -117 120 -17 4 -41 -2 -75 -19 -28 -14 -66 -25 -90 -25 -35 0 -40 3 -40
24 0 13 9 35 20 49 11 14 20 39 20 56 0 26 -6 33 -38 47 -97 42 -125 35 -46
-11 40 -24 45 -30 40 -54 -3 -14 -9 -48 -14 -75 -10 -51 -40 -85 -74 -86 -24
0 -23 -17 1 -25 12 -3 33 4 56 20 26 17 51 25 81 25 26 0 57 8 79 21 26 16 44
20 70 15 46 -9 52 -23 21 -47 -38 -30 -36 -86 3 -123 23 -22 41 -29 90 -33 72
-7 95 -28 143 -130 58 -123 43 -257 -27 -240 -14 3 -6 39 13 60 20 23 17 55
-10 119 -22 51 -63 76 -128 76 -19 0 -48 5 -64 11 -36 14 -88 5 -115 -20 -17
-16 -21 -32 -21 -90 0 -68 -19 -129 -40 -129 -5 0 -16 -15 -24 -33 -16 -40
-61 -74 -69 -53 -3 8 6 31 20 51 34 50 40 109 18 187 -15 56 -21 65 -54 81
-21 9 -52 17 -69 17 -36 0 -42 18 -16 45 12 12 27 14 60 9 37 -5 44 -4 44 10
0 23 -36 34 -83 26 -53 -10 -66 -26 -77 -94 -10 -62 -25 -80 -72 -91 -16 -4
-28 -10 -28 -15 0 -9 -61 -20 -73 -13 -15 9 13 40 52 57 22 10 42 25 45 32 7
18 -23 173 -39 205 -8 14 -30 34 -49 44 -20 11 -36 23 -36 27 0 5 -1 11 -1 16
-1 4 16 10 37 13 33 6 44 2 77 -23 l37 -30 0 24 c0 18 -11 30 -39 46 -77 44
-120 28 -227 -83 -62 -65 -87 -85 -107 -85 -33 0 -33 0 -2 46 22 32 25 48 25
121 0 68 -4 91 -22 122 l-22 38 57 55 c61 58 64 67 57 185 -2 39 23 55 84 54
82 0 107 -18 131 -91 9 -27 23 -51 31 -54 18 -7 18 1 -1 54 -22 63 -47 91 -96
109 -50 19 -114 13 -156 -14 -21 -14 -23 -21 -18 -59 13 -85 -39 -196 -92
-196 -23 0 -32 23 -13 35 5 3 14 24 20 46 15 56 -1 100 -56 146 -24 21 -44 42
-44 46 0 5 -9 22 -21 38 -16 23 -28 29 -58 29 -24 0 -44 -7 -54 -18 -21 -23
-13 -32 30 -32 47 0 106 -42 148 -105 40 -61 43 -86 15 -138 -11 -20 -20 -48
-20 -62 0 -33 -8 -32 -56 7 -22 18 -49 38 -60 45 -22 12 -34 7 -100 -42 -20
-14 -23 -14 -38 0 -22 22 -20 51 4 90 24 38 68 57 112 48 23 -5 34 -2 45 12
30 42 10 45 -84 13 -52 -18 -72 -31 -95 -62 -38 -53 -40 -118 -3 -142 19 -13
25 -25 25 -55 0 -65 -20 -135 -45 -159 -35 -33 -46 -18 -43 59 4 84 -18 125
-60 117 -15 -2 -53 -8 -84 -11 -63 -7 -98 -36 -98 -81 0 -74 -109 -200 -161
-187 -26 7 -24 29 5 48 38 25 64 114 51 174 -5 23 -17 37 -46 51 -35 19 -38
23 -33 53 14 77 25 106 43 112 24 7 44 31 37 43 -8 14 -73 -19 -84 -43 -5 -11
-15 -47 -21 -80 -12 -66 -51 -119 -72 -98 -8 8 -8 20 1 47 21 63 -17 126 -77
126 -18 0 -33 3 -33 8 0 4 9 31 20 60 18 48 19 56 5 87 -13 33 -39 54 -51 42
-3 -3 0 -16 7 -29 7 -12 11 -43 10 -68 -3 -52 -41 -146 -48 -117 -3 11 -11 16
-19 13 -17 -7 -34 23 -34 61 0 36 -9 50 -40 61 -35 12 -110 3 -110 -13 0 -9 8
-12 21 -10 40 8 80 -7 90 -34 15 -37 3 -68 -33 -87 -23 -12 -27 -18 -17 -24 7
-5 17 -6 21 -4 11 7 10 -82 -3 -135 -7 -31 -6 -74 2 -144 19 -168 64 -236 156
-237 26 0 60 -16 183 -81 50 -27 149 -35 185 -17 11 6 47 37 80 69 102 97 164
97 238 1 64 -85 67 -128 12 -180 -26 -24 -46 -27 -91 -13 -16 5 -49 12 -73 14
-40 5 -48 2 -78 -28 -36 -36 -44 -81 -22 -128 14 -30 -9 -89 -43 -111 -24 -15
-148 -30 -148 -17 0 15 25 31 50 31 36 0 60 29 60 72 0 41 -25 68 -63 68 -34
0 -74 -19 -82 -38 -8 -21 0 -26 16 -10 31 29 109 14 109 -21 0 -22 -34 -47
-77 -56 -44 -9 -48 -13 -51 -42 -3 -27 0 -32 25 -37 15 -4 44 -1 63 4 19 6 46
13 60 16 60 11 68 15 86 51 14 29 18 57 16 113 -3 66 0 78 17 94 17 15 30 17
71 12 27 -3 73 -9 101 -12 66 -9 80 -30 78 -114 -2 -50 -7 -68 -26 -91 -40
-48 -56 -39 -47 27 6 53 5 57 -27 90 -18 19 -39 34 -46 34 -22 0 -63 -31 -63
-48 0 -12 3 -13 12 -4 34 34 108 -8 108 -61 0 -28 -15 -44 -25 -27 -10 17 -67
12 -81 -7 -21 -28 -17 -32 21 -23 19 4 35 5 35 1 0 -3 -18 -23 -40 -44 -40
-37 -52 -67 -27 -67 8 0 20 11 27 25 21 39 54 57 85 45 30 -11 31 -24 5 -82
-18 -41 -18 -48 -5 -75 15 -31 50 -65 77 -75 33 -13 61 -96 65 -197 4 -91 3
-98 -21 -126 -34 -41 -51 -25 -37 35 6 29 6 61 -1 95 -8 43 -18 58 -57 92 -74
64 -129 89 -180 83 -45 -5 -50 -10 -93 -104 -21 -47 -77 -101 -89 -89 -8 8 -4
21 16 48 36 47 45 120 19 161 -49 79 -127 125 -185 108 -27 -8 -40 -22 -67
-69 -44 -81 -96 -129 -121 -115 -28 15 -31 13 -31 -20 0 -16 4 -30 8 -30 15 0
103 60 128 88 13 15 33 44 44 64 21 39 65 60 104 50 31 -8 106 -86 106 -110 0
-26 -4 -27 -23 -7 -23 22 -74 27 -107 10 -17 -9 -30 -19 -30 -23 0 -4 27 -7
60 -7 61 0 73 -6 84 -41 5 -15 -1 -28 -19 -45 -31 -30 -32 -63 -3 -83 30 -21
33 -21 69 14 35 33 44 32 53 -5 7 -26 44 -90 88 -152 22 -31 29 -57 39 -136
10 -86 9 -103 -5 -141 -20 -53 -46 -79 -66 -66 -13 8 -12 13 4 40 16 28 17 38
6 97 -6 37 -16 76 -22 87 -5 12 -55 65 -111 119 l-100 97 -54 0 c-39 0 -53 -4
-50 -12 2 -7 15 -13 28 -14 13 -1 36 -2 51 -3 30 -1 61 -27 52 -43 -4 -6 -21
-8 -39 -5 -36 6 -91 -21 -102 -51 -3 -9 -21 -36 -39 -58 l-33 -42 47 -44 c26
-24 72 -59 102 -77 30 -19 71 -44 90 -57 55 -36 223 -93 344 -116 110 -22 125
-22 1679 -25 862 -2 1567 -2 1567 0 0 2 -11 30 -23 63 -20 51 -59 112 -227
358 -8 11 -33 47 -57 79 -24 31 -43 61 -43 65 0 5 -16 35 -36 68 -75 124 -182
343 -207 426 -15 48 -34 124 -42 170 -8 46 -39 163 -70 262 -46 151 -55 190
-55 255 0 100 16 234 34 285 26 75 45 219 51 391 10 280 68 470 188 620 148
184 252 277 373 330 30 13 67 33 81 45 34 26 43 25 43 -4 0 -18 -14 -35 -50
-61 -34 -25 -50 -44 -50 -59 0 -73 103 -56 193 32 26 25 47 51 47 56 0 35 35
96 61 106 69 29 253 -2 302 -51 23 -23 27 -36 27 -82 0 -74 -19 -95 -85 -99
-36 -2 -50 -7 -50 -18 0 -11 14 -16 55 -18 79 -3 102 17 108 96 9 119 -29 168
-153 202 -62 17 -95 20 -152 15 -72 -6 -73 -5 -73 19 0 24 -23 56 -40 56 -16
0 -17 -25 -3 -53 25 -50 -16 -177 -74 -230 -27 -24 -126 -49 -135 -34 -9 15 1
29 18 23 7 -3 27 9 44 27 68 73 41 234 -38 219 -14 -3 -46 -18 -71 -34 -35
-21 -57 -28 -97 -28 -29 0 -55 4 -59 9 -3 5 -19 12 -36 16 -37 8 -55 46 -36
75 16 27 27 25 27 -6 0 -41 18 -64 49 -64 54 0 91 22 141 82 93 111 118 171
97 231 -5 15 -7 30 -4 33 6 6 52 -21 85 -50 l24 -21 -4 30 c-2 24 -13 35 -53
57 -62 34 -90 31 -141 -17 -22 -19 -44 -33 -51 -31 -6 3 -17 -2 -23 -10 -13
-15 -50 -20 -50 -6 0 4 13 17 29 30 20 15 34 39 42 72 7 28 19 50 26 50 7 0
13 5 13 10 0 6 5 10 11 10 5 0 8 -4 5 -9 -8 -13 36 -22 50 -10 8 6 14 6 18 0
3 -5 15 -7 26 -4 11 3 17 9 14 14 -3 5 0 9 5 9 6 0 11 -5 11 -11 0 -6 9 -4 21
5 20 13 23 12 43 -11 l22 -26 45 20 c27 12 61 40 84 67 38 46 38 47 31 112 -9
85 12 147 55 164 40 17 36 32 -8 28 -58 -5 -78 -47 -78 -169 0 -107 -3 -113
-71 -160 -66 -45 -71 -36 -23 38 33 52 34 90 3 124 -14 15 -14 20 0 41 8 12
24 47 35 76 12 29 30 63 41 74 24 26 25 36 5 58 -15 16 -19 38 -17 77 2 21 33
40 58 35 6 -1 16 4 23 12 8 10 8 16 -2 24 -15 12 -57 5 -57 -10 0 -5 -4 -7 -9
-3 -16 9 -51 -51 -51 -87 1 -18 7 -44 14 -57 12 -21 11 -27 -5 -44 -10 -11
-24 -44 -30 -74 -7 -29 -18 -58 -25 -64 -19 -15 -60 -7 -55 11 2 8 6 43 9 78
5 74 -7 93 -95 143 -46 26 -60 30 -96 24 -41 -7 -77 -29 -77 -47 0 -5 14 -1
31 7 74 39 212 -35 208 -112 0 -14 -2 -15 -6 -3 -10 25 -41 50 -70 55 -21 4
-37 -2 -63 -25 l-35 -30 30 5 c17 3 23 2 15 -1 -8 -4 -18 -11 -21 -16 -3 -5
-29 14 -57 41 -38 37 -52 46 -53 33 -3 -34 3 -48 33 -78 27 -29 29 -35 23 -79
-12 -78 -70 -141 -147 -159 -39 -9 -37 21 3 57 28 24 30 31 24 65 -8 45 -48
100 -82 113 -14 5 -44 10 -68 12 -35 1 -48 -4 -78 -30 -19 -17 -60 -40 -89
-51 -57 -21 -218 -37 -218 -21 0 5 9 10 20 10 11 1 23 3 28 4 4 1 26 5 49 10
34 6 55 20 105 72 35 35 77 72 94 83 48 30 87 88 95 139 4 25 5 49 3 53 -9 14
-34 -5 -34 -25 0 -31 -47 -124 -72 -141 -26 -18 -58 -21 -58 -6 0 6 7 27 15
47 19 45 19 107 1 126 -8 8 -21 30 -29 49 -8 19 -28 45 -45 57 -51 36 -104 26
-170 -33 -17 -15 -43 -22 -100 -27 -42 -4 -81 -3 -86 2 -6 6 -3 9 9 9 17 0 16
2 -5 25 l-23 25 60 0 c56 0 63 2 90 33 16 18 37 59 47 91 22 68 11 107 -35
126 -16 7 -29 14 -29 17 0 7 39 78 55 97 25 32 90 23 143 -21 61 -50 68 -70
47 -132 -18 -56 -13 -74 25 -84 14 -3 30 6 54 33 56 62 59 73 51 178 -7 93 -8
96 -43 128 l-37 33 28 56 c27 55 36 125 17 125 -5 0 -10 -7 -10 -16 0 -8 -18
-53 -40 -100 -39 -80 -42 -84 -69 -79 -33 6 -49 -18 -30 -41 14 -17 24 -18 41
-1 11 11 19 11 45 0 43 -17 59 -46 67 -118 6 -57 4 -64 -25 -108 -33 -50 -55
-62 -45 -24 21 75 19 92 -16 137 -46 61 -76 79 -134 86 -46 6 -53 4 -86 -25
-20 -17 -45 -53 -56 -79 -13 -30 -31 -53 -47 -60 -53 -24 -59 -12 -15 35 39
41 39 78 0 125 -17 20 -37 51 -44 69 -12 29 -14 30 -20 12 -7 -23 -39 -63 -51
-63 -4 0 -4 17 -1 38 22 123 13 170 -41 212 -84 65 -190 124 -223 124 -54 0
-92 -24 -103 -63 -7 -29 -5 -38 16 -59 l25 -24 -5 26 c-12 61 25 99 87 89 29
-4 70 -30 70 -43 0 -5 27 -23 59 -40 64 -32 91 -61 91 -97 l0 -23 -38 25 c-49
32 -143 51 -174 34 -22 -12 -22 -12 -3 -20 16 -6 17 -8 3 -8 -9 -1 -28 -11
-42 -24 -22 -21 -24 -28 -20 -92 2 -39 6 -87 9 -107 7 -53 -17 -107 -47 -108
-5 0 -8 26 -8 58 -1 101 -47 155 -141 166 -19 2 -38 4 -43 5 -5 1 -6 32 -2 72
6 66 5 73 -19 101 -14 16 -25 36 -25 44 0 8 -22 35 -48 62 -61 60 -112 131
-112 155 0 23 18 58 39 74 25 19 108 13 136 -9 33 -26 38 -48 20 -98 -14 -39
-14 -45 1 -62 51 -55 134 24 133 127 l0 40 -25 -55 c-41 -90 -83 -122 -69 -52
5 20 7 48 6 61 -1 26 -27 61 -44 61 -6 0 -18 6 -26 14 -18 16 -94 26 -131 17z
m755 -1091 c3 -5 1 -10 -4 -10 -6 0 -11 5 -11 10 0 6 2 10 4 10 3 0 8 -4 11
-10z m-2070 -130 c3 -5 -1 -10 -10 -10 -9 0 -13 5 -10 10 3 6 8 10 10 10 2 0
7 -4 10 -10z m-670 -240 l20 -25 -22 19 c-13 11 -23 24 -23 29 0 6 1 8 3 6 1
-2 11 -15 22 -29z m3765 -49 c0 -5 2 -15 5 -23 6 -18 -5 -34 -31 -42 -16 -5
-23 -1 -31 16 -8 18 -6 26 11 40 23 19 46 23 46 9z m-742 -48 c-10 -2 -26 -2
-35 0 -10 3 -2 5 17 5 19 0 27 -2 18 -5z m740 -87 c-3 -22 -20 -25 -50 -12
-22 10 -23 30 -2 51 15 15 18 15 36 -1 10 -10 18 -27 16 -38z m120 23 c-3 -8
-7 -3 -11 10 -4 17 -3 21 5 13 5 -5 8 -16 6 -23z m-271 -31 c-3 -8 -6 -5 -6 6
-1 11 2 17 5 13 3 -3 4 -12 1 -19z m-20 -20 c-3 -8 -6 -5 -6 6 -1 11 2 17 5
13 3 -3 4 -12 1 -19z m28 -48 c3 -5 1 -10 -4 -10 -6 0 -11 5 -11 10 0 6 2 10
4 10 3 0 8 -4 11 -10z m195 -11 c0 -6 -4 -7 -10 -4 -5 3 -10 11 -10 16 0 6 5
7 10 4 6 -3 10 -11 10 -16z m-3830 -1939 c40 -40 17 -74 -28 -42 -15 11 -38
22 -51 23 -40 6 -36 27 6 32 21 2 41 4 46 5 4 1 16 -7 27 -18z m737 -52 c-3
-8 -6 -5 -6 6 -1 11 2 17 5 13 3 -3 4 -12 1 -19z m204 -885 c65 -34 77 -45
102 -91 16 -29 31 -75 34 -105 4 -44 2 -55 -16 -71 -21 -19 -21 -19 -21 7 0
43 -38 131 -68 158 -68 61 -121 84 -137 60 -3 -5 -18 -12 -34 -16 -40 -9 -67
-51 -75 -118 -6 -58 -48 -157 -65 -157 -16 0 -18 23 -5 60 13 37 6 100 -14
135 -6 11 -12 16 -12 11 0 -5 -6 -3 -14 3 -15 13 -13 25 19 99 13 30 24 42 39
42 12 0 26 4 33 8 6 4 45 8 86 10 69 3 79 0 148 -35z m1792 -1093 c9 -11 13
-20 7 -20 -5 0 -14 9 -20 20 -6 11 -9 20 -8 20 2 0 11 -9 21 -20z"/>
<path d="M4935 5736 c-60 -17 -69 -44 -49 -147 18 -96 13 -139 -23 -191 -34
-50 -61 -58 -89 -25 -12 14 -43 41 -69 61 -55 42 -102 47 -152 16 -31 -19 -47
-48 -20 -37 57 24 84 33 97 32 32 -3 69 -29 104 -75 20 -26 44 -50 54 -52 27
-7 76 18 91 46 14 25 14 25 40 7 48 -34 99 -53 138 -51 82 4 101 0 144 -34 25
-18 58 -36 75 -40 40 -9 139 -97 152 -136 7 -18 7 -30 1 -30 -5 0 -9 -17 -9
-37 0 -48 -20 -31 -25 20 -4 37 -48 104 -75 112 -66 20 -134 10 -165 -25 -12
-13 -20 -46 -26 -107 -11 -112 -36 -197 -66 -225 -20 -18 -34 -22 -83 -21 -48
2 -58 -1 -53 -13 5 -13 20 -19 63 -26 8 -1 32 4 53 11 53 18 99 7 167 -39 118
-80 229 -90 372 -31 131 54 203 59 261 19 18 -13 52 -21 103 -25 86 -7 135
-34 180 -102 l26 -39 41 27 c69 45 113 54 163 32 23 -10 44 -23 48 -29 3 -5
47 -23 98 -39 66 -20 101 -37 123 -59 46 -45 71 -154 37 -154 -5 0 -26 27 -47
61 -37 60 -60 77 -113 81 -29 2 -112 -30 -112 -44 0 -4 -4 -8 -9 -8 -6 0 -6
13 0 33 7 26 6 34 -8 45 -27 19 -33 15 -33 -28 0 -28 -4 -40 -15 -41 -8 -1
-20 -2 -25 -3 -6 -1 -16 10 -23 24 -7 14 -26 31 -41 39 -25 12 -33 11 -58 -4
-33 -19 -28 -22 -80 52 -34 49 -72 66 -124 58 -39 -5 -44 -9 -44 -31 0 -24 2
-25 38 -19 30 5 44 2 65 -15 28 -22 60 -74 52 -82 -3 -3 7 -11 21 -18 23 -13
30 -12 56 3 16 9 39 17 50 17 20 0 57 -36 58 -57 0 -6 10 -19 22 -27 20 -14
23 -13 50 14 l28 30 2 -53 c1 -28 1 -62 0 -74 0 -13 3 -23 8 -23 19 0 31 41
24 89 -6 43 -4 50 17 65 14 10 43 16 75 16 47 0 55 -3 87 -39 20 -22 43 -54
52 -70 29 -57 75 -31 75 43 0 50 -14 81 -66 141 -43 49 -52 55 -118 71 -39 9
-99 32 -134 51 -85 44 -127 43 -204 -9 l-26 -18 -36 49 c-28 40 -42 51 -73 56
-49 9 -118 29 -163 48 -19 8 -72 18 -117 21 -74 7 -86 5 -130 -17 -26 -14 -75
-32 -108 -42 -33 -9 -72 -20 -86 -24 -44 -14 -135 8 -189 44 -27 18 -72 41
-100 50 -59 20 -66 29 -47 58 19 29 27 66 37 163 9 90 21 117 59 134 44 20 65
20 99 0 34 -21 71 -87 72 -126 0 -25 38 -77 50 -69 14 8 43 132 37 157 -10 40
-76 116 -126 144 -25 15 -73 45 -106 67 -55 36 -64 39 -128 38 -63 -1 -68 1
-79 25 -6 13 -30 38 -52 55 -39 29 -41 32 -56 125 -19 115 -10 154 37 154 15
0 34 4 42 9 27 17 -20 30 -64 17z m26 -327 c13 -11 19 -18 12 -15 -6 4 -13 0
-16 -6 -5 -17 -37 8 -37 28 0 20 14 17 41 -7z"/>
<path d="M2100 5695 c0 -3 11 -21 24 -38 51 -67 40 -124 -14 -71 -16 16 -32
29 -37 29 -4 1 -19 5 -32 9 -34 12 -107 -28 -120 -65 -6 -18 -6 -29 0 -29 5 0
9 4 9 9 0 5 15 18 33 29 47 29 90 19 129 -29 17 -22 36 -39 42 -39 20 1 45 47
42 76 -2 16 -4 41 -5 55 0 14 -7 32 -13 41 -13 16 -58 34 -58 23z"/>
<path d="M3603 5670 c-43 -26 -61 -57 -64 -110 -4 -67 -23 -98 -76 -121 -26
-11 -49 -16 -52 -12 -10 14 -61 33 -89 33 -33 0 -88 -45 -97 -80 -6 -23 -3
-21 31 13 41 42 65 44 115 7 26 -19 28 -19 79 0 29 11 64 29 77 41 12 13 23
18 24 13 1 -5 7 24 15 64 15 83 32 115 75 141 16 10 26 21 22 24 -11 11 -26 8
-60 -13z"/>
<path d="M4608 5664 c-10 -3 -18 -14 -18 -25 0 -20 19 -25 36 -10 34 33 93 0
149 -85 32 -47 37 -62 32 -95 -3 -21 -1 -39 4 -39 11 0 29 34 29 54 0 19 -85
158 -111 182 -18 17 -89 27 -121 18z"/>
<path d="M4406 5608 c-3 -7 -7 -25 -10 -39 -3 -14 -24 -46 -46 -70 -22 -24
-40 -49 -40 -56 0 -6 -9 -9 -22 -6 -23 4 -23 4 -3 -12 30 -24 62 -29 98 -14
17 8 35 14 39 14 21 0 108 62 122 86 32 55 5 53 -48 -3 -54 -56 -90 -78 -132
-78 l-25 0 29 43 c32 45 62 111 62 133 0 17 -19 18 -24 2z"/>
<path d="M3132 5564 c-32 -19 -44 -34 -52 -64 -9 -35 -8 -45 15 -87 14 -26 25
-54 25 -60 0 -7 4 -13 9 -13 13 0 21 53 10 67 -16 19 -29 75 -23 100 7 27 59
53 107 53 37 0 25 15 -19 23 -22 4 -42 -1 -72 -19z"/>
<path d="M3620 5566 c0 -3 20 -11 45 -17 40 -10 47 -17 65 -57 23 -51 22 -69
-13 -174 -26 -83 -19 -97 40 -73 46 19 75 53 104 127 26 67 43 86 85 94 42 8
44 20 3 29 -27 6 -36 2 -69 -30 -26 -25 -40 -49 -44 -76 -4 -23 -14 -44 -26
-51 -11 -7 -20 -18 -20 -25 0 -12 -41 -46 -47 -39 -3 2 2 20 11 39 15 37 20
75 17 144 -2 62 -41 103 -104 110 -26 3 -47 3 -47 -1z"/>
<path d="M2572 5493 c-20 -37 -15 -95 14 -136 27 -40 44 -45 24 -6 -7 12 -15
54 -19 93 -6 63 -8 69 -19 49z"/>
<path d="M965 5394 c-17 -13 -18 -16 -5 -24 21 -13 87 -16 99 -4 7 6 -43 43
-59 43 -8 0 -24 -6 -35 -15z"/>
<path d="M2165 5353 c-11 -3 -32 -14 -47 -25 -22 -15 -28 -27 -28 -56 0 -59
17 -103 55 -142 20 -20 40 -50 44 -66 l8 -29 14 28 c11 24 11 32 -2 53 -14 23
-14 29 4 65 25 50 52 68 105 72 55 3 53 14 -2 22 -81 12 -104 -4 -120 -86 -12
-56 -60 -18 -71 56 -7 51 3 66 51 72 22 3 41 7 43 9 5 5 -20 34 -28 33 -3 -1
-15 -4 -26 -6z"/>
<path d="M1360 5341 c0 -6 4 -12 9 -15 14 -9 21 -69 12 -101 -8 -27 -9 -28
-16 -10 -25 70 -25 70 -73 82 -50 11 -109 -2 -143 -33 -15 -14 -19 -13 -38 12
-11 15 -21 31 -21 35 0 5 -11 9 -25 9 -31 0 -31 -1 0 -46 27 -40 32 -80 11
-106 -21 -29 -33 -21 -40 27 -8 51 -31 70 -74 61 -15 -3 -62 -7 -104 -8 -69
-2 -81 -5 -102 -27 -29 -32 -37 -54 -26 -72 10 -15 9 -16 30 26 13 24 25 31
60 38 63 10 172 8 187 -4 22 -19 26 -69 7 -90 -24 -27 -32 -114 -10 -122 13
-5 16 1 16 38 0 32 6 50 22 64 11 11 25 18 29 15 14 -8 49 35 49 61 0 32 24
55 85 85 48 23 48 23 84 4 27 -14 38 -28 45 -56 10 -39 46 -59 71 -38 22 18
23 91 3 138 -17 37 -48 59 -48 33z"/>
<path d="M3443 5313 c-9 -16 -25 -36 -35 -46 -22 -22 -23 -37 -3 -37 25 0 65
50 65 81 0 36 -5 36 -27 2z"/>
<path d="M4560 5307 c-14 -7 -25 -19 -25 -27 0 -8 -4 -22 -9 -30 -4 -8 1 -5
12 7 11 13 37 25 60 29 34 5 43 2 71 -22 55 -51 56 -185 0 -248 -16 -19 -29
-41 -29 -50 0 -22 44 -38 73 -27 37 14 100 84 129 142 33 66 52 84 96 94 17 3
32 11 32 16 0 9 -49 11 -82 2 -10 -2 -36 -40 -59 -84 -51 -97 -88 -139 -123
-139 -32 0 -32 5 -1 41 30 36 39 83 32 157 -6 70 -34 131 -62 137 -65 13 -93
13 -115 2z"/>
<path d="M1864 5196 c-24 -18 -18 -23 31 -27 47 -4 123 -47 177 -101 29 -29
38 -46 38 -72 0 -26 -5 -35 -22 -39 -13 -4 -26 -1 -30 6 -4 7 -8 8 -8 1 0 -22
26 -45 55 -47 28 -2 30 0 33 38 4 49 -13 111 -33 119 -8 3 -15 12 -15 19 0 16
-140 101 -181 111 -15 3 -34 0 -45 -8z"/>
<path d="M3967 5163 c-27 -8 -51 -21 -54 -29 -9 -23 1 -26 33 -9 16 8 38 15
50 15 32 0 85 21 78 31 -7 13 -51 10 -107 -8z"/>
<path d="M4933 5113 c-20 -7 -15 -17 16 -31 40 -18 45 -37 17 -67 -32 -35 -36
-76 -13 -130 16 -36 24 -45 45 -45 36 0 51 27 52 90 0 100 -65 201 -117 183z
m86 -172 c-1 -14 -4 -37 -8 -50 l-7 -24 -17 26 c-20 31 -22 60 -4 87 11 19 13
19 25 3 6 -9 12 -28 11 -42z"/>
<path d="M810 5076 c0 -8 15 -17 36 -20 50 -10 69 -33 84 -105 10 -49 10 -67
1 -89 -12 -25 -13 -26 -24 -7 -6 11 -10 36 -8 57 1 31 -3 41 -34 65 -19 15
-47 30 -62 33 -30 6 -161 -12 -181 -24 -7 -4 -12 -26 -12 -49 0 -23 -7 -51
-15 -61 -14 -19 -17 -17 -62 31 -35 37 -58 52 -83 56 -19 3 -42 7 -50 9 -8 1
-15 -4 -15 -12 0 -11 13 -16 44 -18 34 -3 51 -10 68 -30 44 -50 47 -61 17 -72
-31 -12 -23 -25 22 -34 24 -5 36 -2 58 19 31 28 56 82 56 119 0 21 6 26 33 30
140 24 185 3 191 -85 2 -30 4 -61 5 -70 2 -25 31 -32 52 -13 26 23 34 95 19
176 -8 48 -17 71 -29 75 -9 2 -25 9 -36 13 -43 18 -75 21 -75 6z"/>
<path d="M342 4867 c-33 -35 -29 -79 9 -111 17 -14 41 -26 55 -26 30 0 31 12
2 25 -36 16 -60 67 -48 100 14 37 8 40 -18 12z"/>
<path d="M2330 4879 c0 -5 5 -7 10 -4 6 3 10 8 10 11 0 2 -4 4 -10 4 -5 0 -10
-5 -10 -11z"/>
<path d="M3754 4821 c-32 -9 -78 -53 -93 -89 -8 -18 -11 -35 -8 -38 9 -9 45
15 52 35 24 76 166 86 219 15 l18 -26 -44 7 c-37 6 -54 2 -97 -19 -28 -15 -51
-31 -51 -36 0 -21 30 -21 57 0 22 17 38 20 83 18 86 -4 101 18 54 79 -43 57
-109 75 -190 54z"/>
<path d="M592 4755 c-23 -14 -49 -25 -57 -25 -8 0 -15 -4 -15 -9 0 -19 36 -17
80 5 41 20 48 21 73 7 16 -8 37 -23 48 -34 20 -20 39 -25 39 -11 0 15 -70 82
-85 82 -7 0 -19 2 -27 5 -7 2 -32 -7 -56 -20z"/>
<path d="M4305 4709 c-39 -11 -75 -44 -75 -69 0 -27 7 -25 42 13 27 28 37 32
79 31 39 0 59 -8 102 -37 29 -20 56 -37 59 -37 4 0 40 -16 82 -35 81 -39 106
-64 151 -154 23 -44 26 -62 22 -102 -6 -52 4 -64 24 -28 17 33 6 87 -38 173
l-38 79 -174 88 c-96 49 -181 89 -190 88 -9 0 -30 -5 -46 -10z"/>
<path d="M563 4633 c-42 -8 -23 -22 22 -16 47 5 105 -11 105 -30 0 -6 3 -8 6
-5 3 3 22 -9 42 -28 34 -31 37 -32 40 -13 2 11 -2 26 -8 34 -30 37 -149 70
-207 58z"/>
<path d="M4948 4522 c-16 -9 -28 -20 -28 -24 0 -10 39 -9 65 1 32 13 98 -7
126 -38 21 -22 28 -42 33 -99 8 -80 25 -108 56 -92 26 14 30 21 55 117 l23 84
-22 8 c-20 8 -21 4 -28 -58 -10 -82 -24 -119 -40 -103 -7 7 -11 29 -10 49 3
93 -42 148 -134 163 -72 12 -64 13 -96 -8z"/>
<path d="M84 4471 c-45 -20 -84 -73 -84 -112 1 -26 3 -24 67 57 25 32 83 46
153 38 69 -8 79 5 20 24 -56 17 -108 15 -156 -7z"/>
<path d="M5785 4465 c-22 -8 -41 -15 -42 -15 -5 0 -3 -40 2 -40 2 0 18 8 35
19 43 26 89 15 115 -27 11 -17 23 -31 28 -32 16 0 6 50 -15 74 -29 33 -72 40
-123 21z"/>
<path d="M6016 4459 c-2 -8 -9 -33 -15 -55 -7 -28 -26 -55 -57 -84 -35 -32
-43 -45 -33 -51 20 -13 22 -12 56 24 41 43 83 112 83 136 0 24 -28 49 -34 30z"/>
<path d="M4900 4338 c0 -63 -29 -104 -78 -113 -40 -6 -64 2 -105 35 -17 14
-18 12 -15 -18 4 -48 45 -72 90 -54 18 8 39 14 46 16 7 1 36 26 65 54 58 57
76 62 124 32 34 -21 47 -57 48 -138 0 -37 -5 -48 -33 -73 -28 -25 -31 -33 -21
-45 18 -22 55 18 76 83 14 46 15 62 5 111 -17 85 -71 130 -145 123 -9 -1 -20
5 -23 13 -13 34 -34 17 -34 -26z"/>
<path d="M6163 4320 c-39 -16 -56 -54 -45 -97 10 -37 10 -38 11 -7 1 39 42 76
86 77 49 1 65 -17 65 -74 0 -26 4 -50 9 -53 17 -11 80 38 81 62 0 27 -4 28
-30 0 -23 -25 -27 -23 -32 13 -6 46 -40 80 -83 85 -22 2 -50 0 -62 -6z"/>
<path d="M5491 4291 c-13 -4 -33 -19 -44 -33 -17 -22 -18 -30 -8 -42 11 -14
17 -12 43 14 30 30 48 34 128 30 48 -2 97 -35 119 -79 17 -33 18 -40 5 -71
-16 -38 -10 -88 12 -97 22 -8 60 22 73 59 7 18 21 50 32 70 41 79 29 143 -25
136 l-28 -3 21 -27 c12 -14 21 -37 21 -50 0 -31 -46 -125 -65 -132 -19 -7 -20
26 -3 53 27 44 -54 151 -127 169 -44 11 -117 12 -154 3z"/>
<path d="M5265 4160 c-59 -13 -71 -22 -98 -70 -31 -55 -32 -60 -12 -60 8 0 22
12 32 28 52 84 106 88 183 16 42 -39 50 -43 50 -26 0 51 -101 124 -155 112z"/>
<path d="M4630 4139 c0 -5 11 -14 24 -21 30 -13 59 -81 51 -117 -3 -15 -19
-39 -35 -55 -52 -48 -32 -66 21 -18 55 49 57 147 3 193 -23 19 -64 31 -64 18z"/>
<path d="M6168 4142 c-26 -5 -23 -13 20 -55 76 -75 245 -90 289 -27 7 10 33
26 57 35 37 14 53 15 93 6 26 -6 77 -12 113 -13 77 -2 117 -19 132 -56 7 -15
20 -37 31 -49 10 -11 21 -39 24 -61 4 -33 2 -40 -15 -44 -16 -5 -21 0 -26 25
-8 42 -79 107 -115 107 -37 0 -81 -35 -81 -65 0 -33 46 -84 96 -106 40 -16 47
-17 97 -3 74 22 122 8 192 -56 29 -27 63 -54 75 -60 12 -6 28 -27 36 -45 16
-39 19 -115 4 -115 -5 0 -10 -11 -10 -25 0 -46 -19 -25 -25 29 -6 45 -14 60
-51 100 -86 89 -166 109 -259 63 -16 -9 -47 -17 -67 -20 -30 -4 -40 0 -51 16
-20 31 -36 12 -35 -41 2 -59 -29 -129 -71 -165 -37 -31 -56 -35 -46 -9 33 87
29 149 -16 205 -47 61 -199 88 -199 36 0 -5 23 -9 51 -9 63 0 116 -24 140 -64
21 -34 25 -71 9 -81 -5 -3 -10 -2 -10 4 0 16 -85 52 -106 45 -50 -18 -103 -60
-104 -81 0 -13 5 -23 10 -23 6 0 10 4 10 9 0 5 24 21 53 36 42 20 59 24 78 16
41 -15 52 -37 46 -85 -6 -38 -3 -46 23 -71 29 -28 30 -31 29 -119 -2 -119 -25
-172 -87 -205 -33 -17 -35 -11 -13 40 33 75 34 117 8 182 -18 42 -36 66 -66
88 -40 30 -43 31 -90 19 -45 -11 -53 -17 -98 -83 -69 -101 -81 -100 -81 7 l1
85 -49 54 c-47 52 -50 53 -78 42 -30 -13 -104 -117 -87 -123 6 -2 24 13 42 32
19 22 40 36 54 36 33 0 85 -32 85 -52 0 -9 3 -23 6 -32 5 -12 -1 -16 -23 -16
-28 0 -53 -15 -53 -32 0 -4 16 -8 36 -8 33 0 35 -2 34 -27 -5 -67 0 -83 24
-89 15 -3 34 1 50 11 l26 17 0 -81 c0 -81 3 -88 29 -72 11 7 13 27 8 93 -9
137 14 193 85 205 29 4 41 0 68 -24 39 -35 36 -57 -9 -66 -32 -7 -45 -23 -56
-76 -9 -42 5 -39 37 9 18 27 31 35 53 35 26 0 30 -4 33 -32 2 -18 -8 -61 -23
-98 -15 -36 -24 -73 -21 -80 8 -21 49 -18 79 5 27 21 47 26 47 11 0 -14 106
-51 147 -51 38 0 116 -39 131 -66 5 -8 33 -32 63 -53 82 -57 109 -132 72 -204
-15 -29 -17 -30 -23 -12 -7 17 -9 18 -15 4 -4 -11 -14 -15 -26 -12 -23 6 -25
-10 -3 -31 24 -24 60 -19 84 12 20 24 22 35 17 109 l-5 83 -53 47 c-29 27 -71
66 -94 88 -32 32 -52 43 -100 53 -81 18 -165 44 -171 54 -3 5 0 23 6 42 6 18
15 67 21 107 5 41 12 91 15 111 5 29 2 39 -10 44 -21 8 -20 17 4 46 56 66 100
135 100 158 0 22 9 28 83 53 113 40 128 41 188 22 95 -32 136 -85 154 -197 4
-29 11 -38 25 -38 33 0 53 45 58 129 l4 78 -75 74 c-41 41 -89 83 -108 94 -18
11 -42 25 -53 32 -30 18 -46 43 -46 73 0 16 -11 37 -29 54 -16 16 -35 41 -41
56 -8 20 -24 32 -62 44 -28 9 -62 16 -77 16 -14 0 -42 4 -61 10 -76 20 -105
18 -148 -11 -94 -64 -212 -90 -242 -54 -7 8 -16 13 -20 10 -4 -2 -24 13 -46
33 -22 21 -47 36 -56 34z m643 -195 c35 -23 49 -61 30 -80 -8 -8 -11 -6 -11 6
0 9 -4 17 -10 17 -5 0 -10 -8 -10 -17 0 -11 -3 -14 -8 -7 -4 6 -14 13 -22 16
-21 8 -44 53 -37 72 9 22 28 20 68 -7z"/>
<path d="M5485 4130 c4 -8 17 -25 28 -38 l21 -22 -22 -45 c-12 -25 -22 -54
-22 -64 0 -29 -32 -79 -57 -90 -26 -12 -28 -8 -12 20 6 12 8 28 4 37 -6 15
-10 13 -31 -11 -37 -43 -31 -88 13 -99 27 -7 78 44 88 89 3 17 22 57 41 88 30
51 33 60 21 82 -6 13 -28 34 -46 46 -23 14 -32 17 -26 7z"/>
<path d="M4511 4068 c-33 -12 -18 -25 36 -31 35 -4 53 -12 71 -32 26 -31 37
-29 23 6 -11 31 -98 69 -130 57z"/>
<path d="M5227 4038 c-10 -11 -17 -21 -15 -23 2 -2 23 -5 48 -7 25 -3 62 -12
84 -21 56 -25 64 -21 30 14 -36 38 -50 46 -94 52 -26 3 -40 0 -53 -15z"/>
<path d="M5095 4030 c-10 -11 -24 -20 -32 -20 -7 0 -13 -5 -13 -10 0 -16 -31
-8 -52 13 -10 9 -22 17 -28 17 -15 0 -12 -73 4 -95 12 -17 16 -17 46 -5 38 16
86 62 96 92 9 28 0 31 -21 8z"/>
<path d="M4414 3985 c-16 -39 -19 -99 -4 -90 6 3 10 13 10 21 0 8 9 34 20 56
24 50 24 48 4 48 -8 0 -22 -16 -30 -35z"/>
<path d="M5947 3986 c-47 -17 -51 -21 -44 -40 5 -13 10 -13 34 -1 56 27 122
23 162 -11 29 -24 31 -24 31 -6 0 11 -8 30 -18 42 -22 27 -110 36 -165 16z"/>
<path d="M5070 3935 c0 -8 -6 -15 -14 -15 -8 0 -21 -8 -28 -18 -7 -9 -25 -25
-40 -35 -16 -10 -28 -22 -28 -27 0 -21 41 -9 68 20 28 30 37 33 84 31 52 -2
74 -90 42 -170 -15 -39 -24 -45 -99 -67 -41 -13 -47 -56 -11 -79 23 -15 31
-15 91 -2 52 12 75 24 110 56 54 50 90 53 143 14 51 -39 60 -52 68 -101 4 -28
1 -57 -10 -90 -26 -75 -28 -90 -10 -100 21 -12 59 -4 77 17 8 9 26 38 41 64
23 42 31 67 53 154 3 15 -5 38 -26 70 -43 64 -47 87 -26 145 17 47 15 78 -4
78 -14 0 -41 -94 -41 -140 0 -26 10 -51 36 -86 27 -37 34 -56 31 -79 -6 -35
-49 -129 -77 -165 -23 -30 -38 -20 -22 15 13 28 15 89 6 148 -8 46 -52 92
-114 119 -67 30 -87 26 -132 -20 -21 -22 -47 -44 -58 -47 -11 -4 -20 -9 -20
-13 0 -11 -78 -13 -85 -3 -3 6 11 14 31 20 47 13 71 42 90 109 20 66 13 116
-19 151 -13 14 -27 34 -30 44 -8 22 -77 25 -77 2z"/>
<path d="M4492 3910 c-26 -16 -52 -53 -52 -76 0 -2 19 9 42 26 68 49 110 35
142 -48 l16 -42 -27 5 c-30 5 -77 -19 -71 -37 3 -7 22 -12 44 -12 32 -1 40 -5
42 -23 2 -14 -7 -32 -22 -48 -29 -29 -33 -52 -12 -80 13 -18 17 -18 62 -4 42
13 53 22 74 61 l25 46 44 -18 c46 -18 59 -35 60 -82 1 -20 -4 -28 -16 -28 -22
0 -81 -46 -71 -55 3 -3 20 1 37 9 16 9 32 13 35 8 2 -4 -6 -32 -19 -62 -40
-95 -7 -108 78 -30 51 47 55 49 70 32 9 -10 28 -44 43 -76 27 -58 27 -61 14
-139 -11 -68 -11 -81 3 -94 21 -21 51 -3 70 44 8 21 24 47 36 57 12 11 30 50
42 88 18 61 24 71 53 83 25 11 43 12 67 5 19 -6 43 -10 54 -10 18 1 17 3 -8
25 -44 39 -75 42 -126 13 -40 -22 -47 -31 -66 -90 -12 -37 -29 -77 -38 -90
-33 -46 -67 -83 -67 -71 0 6 5 15 10 18 6 3 10 32 10 65 0 64 -27 135 -72 188
l-26 31 17 63 c10 35 16 69 15 76 -1 6 -2 19 -3 27 0 8 -8 15 -16 15 -11 0
-15 -12 -15 -45 0 -67 -21 -124 -58 -162 -44 -44 -54 -42 -37 8 19 52 19 91 0
152 -20 67 -36 80 -80 68 -34 -9 -35 -9 -29 17 11 47 37 83 59 81 11 -1 24 -1
30 0 16 2 -33 32 -60 37 -21 4 -27 -2 -40 -32 -8 -21 -18 -55 -22 -78 -8 -53
-33 -93 -72 -117 -26 -16 -33 -17 -37 -5 -3 8 4 28 16 44 14 19 24 50 27 89 7
79 -28 155 -83 178 -47 19 -52 19 -92 -5z"/>
<path d="M6152 3887 c14 -29 35 -35 44 -12 8 21 -5 38 -20 26 -9 -7 -16 -7
-24 1 -9 9 -8 4 0 -15z"/>
<path d="M5966 3884 c-3 -9 -6 -44 -6 -79 0 -71 -17 -165 -30 -165 -12 0 -20
27 -20 68 0 54 -44 110 -108 139 -64 28 -88 29 -95 3 -3 -13 -11 -18 -21 -14
-26 10 -76 -33 -76 -66 0 -63 12 -66 39 -10 31 64 61 77 130 58 70 -21 113
-109 80 -169 -5 -11 -14 -17 -19 -14 -9 6 -25 -53 -16 -62 3 -3 20 1 39 10 36
17 109 23 145 12 31 -10 29 18 -3 35 -25 13 -25 16 -19 94 3 45 10 94 15 110
14 46 11 66 -10 66 -10 0 -22 -7 -25 -16z"/>
<path d="M4060 3584 c0 -8 5 -12 10 -9 6 3 10 10 10 16 0 5 -4 9 -10 9 -5 0
-10 -7 -10 -16z"/>
<path d="M6052 3290 c0 -14 2 -19 5 -12 2 6 2 18 0 25 -3 6 -5 1 -5 -13z"/>
<path d="M5314 3288 c-3 -4 -14 -8 -24 -8 -25 0 -77 -45 -96 -83 -16 -29 -15
-46 0 -146 2 -13 8 -26 13 -30 20 -13 33 -52 41 -125 9 -87 3 -108 -46 -158
-39 -41 -52 -47 -52 -23 0 8 6 15 13 15 10 0 13 23 11 95 -2 115 -9 127 -102
154 -59 18 -67 18 -97 4 -18 -8 -64 -46 -103 -82 -62 -60 -77 -69 -126 -78
-31 -5 -56 -6 -56 -2 0 11 30 39 42 39 6 0 28 7 48 16 65 29 90 103 70 211
-15 86 -31 110 -74 118 -32 7 -33 8 -23 36 15 38 0 50 -24 19 -45 -57 -61 -69
-104 -76 -25 -3 -56 -3 -70 0 -34 9 -34 -17 0 -32 31 -14 58 -15 71 -3 5 5 38
12 74 16 86 9 98 -1 115 -90 18 -100 5 -129 -82 -181 -76 -46 -93 -66 -77 -91
16 -26 47 -27 118 -3 50 16 80 36 140 90 67 62 81 70 115 70 84 0 147 -111
107 -188 -16 -32 -21 -78 -10 -106 11 -30 42 -16 98 45 l56 60 0 99 c0 90 -3
103 -30 156 -26 49 -30 67 -28 117 3 58 4 59 46 83 59 33 109 33 165 1 71 -42
94 -113 62 -190 -18 -43 -20 -97 -4 -97 32 0 93 26 109 47 24 31 70 172 70
215 0 35 -32 98 -50 98 -13 0 -13 -4 7 -59 15 -43 15 -51 -2 -126 -14 -62 -24
-85 -48 -107 -16 -16 -32 -26 -35 -23 -3 2 -11 0 -19 -6 -18 -16 -17 18 2 51
8 14 14 47 15 73 0 96 -68 173 -166 186 -30 4 -57 4 -60 -1z"/>
<path d="M910 3170 c-8 -5 -23 -11 -33 -14 -16 -5 -43 -54 -34 -63 2 -2 21 10
42 27 21 16 47 30 59 30 72 0 159 -57 170 -111 6 -32 -11 -60 -24 -39 -3 5
-19 6 -34 2 l-29 -8 24 -16 c33 -21 85 -32 94 -19 24 40 -11 143 -61 176 -52
35 -143 53 -174 35z"/>
<path d="M5706 3118 c10 -12 27 -31 38 -43 54 -59 77 -192 39 -220 -22 -17
-12 -29 16 -20 39 12 51 53 37 120 -23 104 -79 185 -129 185 -20 0 -20 0 -1
-22z"/>
<path d="M6330 3124 c-22 -26 -94 -63 -135 -70 -46 -7 -49 -9 -40 -23 9 -15
58 -14 74 2 6 6 15 12 19 12 15 1 102 47 102 55 0 5 3 15 6 24 8 21 -10 21
-26 0z"/>
<path d="M972 3065 c-30 -13 -51 -40 -39 -51 2 -3 19 7 36 22 27 22 38 25 71
20 39 -6 55 6 24 18 -25 9 -56 6 -92 -9z"/>
<path d="M189 3001 c-64 -43 -75 -53 -81 -78 -9 -34 24 -76 100 -126 88 -59
94 -68 94 -119 -1 -34 -6 -47 -28 -65 -34 -27 -44 -22 -44 22 0 38 -27 62 -92
86 -41 14 -65 4 -33 -13 41 -23 85 -76 85 -102 0 -37 -12 -32 -32 12 l-16 37
-1 -42 c-1 -24 -4 -43 -8 -44 -5 0 -22 -2 -39 -4 -18 -2 -46 -11 -63 -19 -38
-20 -42 -60 -10 -100 24 -30 56 -36 44 -8 -14 31 -17 79 -6 86 6 4 32 9 58 13
48 5 48 5 66 -31 24 -52 22 -62 -13 -60 -17 1 -30 -2 -30 -7 0 -10 93 -59 114
-59 26 0 55 34 58 69 4 43 -18 53 -27 12 -6 -28 -38 -51 -52 -37 -3 3 -7 32
-8 65 -3 60 -2 60 31 71 47 16 79 83 69 148 -4 26 -15 56 -26 68 -16 17 -18
29 -13 63 11 66 34 76 179 76 66 1 122 5 125 10 5 9 -7 11 -115 21 -88 7 -192
-9 -211 -33 -10 -12 -13 -32 -9 -61 5 -41 4 -43 -18 -36 -12 4 -37 18 -54 32
-60 45 -35 119 49 147 17 5 33 16 36 23 7 22 -33 13 -79 -17z"/>
<path d="M6580 2972 c0 -6 13 -19 30 -29 35 -21 44 -54 38 -148 -4 -63 -6 -67
-51 -110 -27 -25 -52 -45 -57 -45 -19 0 -19 20 0 61 28 62 25 114 -9 174 -40
69 -66 86 -144 92 -55 5 -71 2 -105 -17 -44 -25 -55 -53 -43 -110 l7 -35 7 28
c5 16 19 46 33 67 l26 39 61 -4 c57 -3 65 -7 99 -44 21 -22 38 -44 38 -49 0
-6 -21 -13 -47 -17 -27 -5 -54 -9 -62 -11 -22 -4 -63 -47 -77 -81 -25 -58 19
-193 62 -193 8 0 14 -4 14 -8 0 -5 35 -16 78 -26 92 -21 120 -38 134 -77 5
-16 14 -29 18 -29 25 0 37 -129 13 -137 -9 -3 -43 70 -43 93 0 21 -42 65 -75
78 -24 11 -44 12 -74 5 -33 -7 -48 -6 -74 8 -41 22 -74 27 -83 12 -4 -7 3 -19
15 -29 l23 -16 -18 -70 c-9 -38 -22 -77 -28 -87 -15 -25 -86 -43 -97 -25 -5 7
-9 9 -9 4 0 -5 -8 -2 -18 7 -23 21 -45 7 -40 -24 2 -19 11 -26 46 -33 36 -8
51 -5 92 14 52 24 62 40 93 150 l13 45 59 2 c114 4 165 -34 165 -120 0 -61 8
-77 36 -77 34 0 53 45 56 128 1 56 -3 76 -21 105 -30 48 -87 97 -114 97 -12 0
-53 11 -92 24 -59 19 -73 28 -87 57 -48 93 9 183 112 177 56 -4 60 -18 26 -91
-30 -63 -31 -73 -10 -81 71 -27 174 68 189 174 5 36 13 52 35 69 16 11 36 21
45 21 26 0 152 -68 159 -85 7 -18 26 -11 26 10 0 8 -26 35 -57 60 l-56 46 -79
-5 c-76 -4 -78 -4 -78 18 0 13 -6 29 -14 35 -20 17 -86 26 -86 13z"/>
<path d="M5963 2933 c-20 -4 -34 -17 -96 -96 -18 -22 -34 -30 -70 -34 -51 -6
-60 -13 -51 -36 4 -12 12 -13 34 -7 16 4 31 6 34 3 3 -3 19 6 36 21 17 14 40
26 51 26 11 0 28 5 38 12 44 27 69 -21 78 -153 6 -91 -2 -111 -83 -191 -56
-55 -57 -57 -44 -87 15 -36 17 -37 50 -11 14 11 31 20 38 20 8 0 41 17 74 37
69 43 99 39 131 -14 16 -28 17 -41 9 -93 -10 -65 -1 -84 25 -57 28 28 21 117
-14 179 -44 77 -67 76 -213 -12 -61 -38 -87 -41 -75 -9 3 8 28 32 55 54 77 61
93 125 75 287 -7 57 -29 91 -57 87 -35 -4 -41 1 -23 21 12 13 31 20 57 20 36
0 38 2 28 20 -11 20 -34 23 -87 13z"/>
<path d="M465 2840 c-17 -6 -14 -9 21 -19 55 -15 79 -43 78 -92 -1 -21 -7 -46
-14 -54 -19 -23 -8 -26 19 -4 33 27 36 118 6 149 -23 22 -78 33 -110 20z"/>
<path d="M776 2770 c-17 -5 -62 -41 -101 -80 -39 -39 -80 -72 -90 -74 -11 -2
-24 -5 -30 -7 -15 -5 -55 11 -55 22 0 5 -4 9 -10 9 -16 0 -12 -36 5 -50 41
-34 156 13 200 80 30 45 78 70 136 70 43 0 50 3 47 18 -4 20 -56 26 -102 12z"/>
<path d="M735 2680 c-3 -5 5 -12 19 -16 39 -10 57 -45 45 -89 -13 -46 -42 -75
-74 -75 -31 0 -31 -10 0 -33 24 -18 25 -17 54 12 16 16 39 56 51 88 l22 58
-38 33 c-37 32 -67 41 -79 22z"/>
<path d="M990 2525 c-174 -89 -172 -88 -243 -89 -60 -1 -71 2 -87 22 -23 28
-30 28 -30 -3 0 -30 29 -44 101 -52 26 -2 55 -6 65 -7 11 -2 35 10 55 25 20
16 40 29 44 29 3 0 21 11 38 24 32 25 93 42 135 39 27 -2 28 8 4 30 -16 15
-22 13 -82 -18z"/>
<path d="M1700 2278 c0 -108 -2 -119 -22 -138 -12 -11 -33 -20 -46 -20 -21 0
-23 -2 -12 -16 7 -8 24 -14 38 -12 41 5 64 47 72 135 4 43 11 86 15 95 4 11
-2 26 -19 45 l-26 28 0 -117z"/>
<path d="M632 2281 c-9 -6 -8 -12 8 -26 11 -10 25 -36 32 -57 10 -34 9 -42
-10 -68 -38 -51 -27 -92 21 -83 65 12 117 56 137 118 13 39 9 87 -4 50 -27
-76 -60 -111 -123 -130 -29 -8 -30 9 -3 32 34 29 24 90 -22 145 -15 17 -28 24
-36 19z"/>
<path d="M2263 2273 c-46 -6 -41 -19 8 -26 22 -3 49 -13 60 -23 23 -21 27 -66
4 -58 -8 4 -15 14 -15 23 0 10 -3 12 -8 5 -4 -6 -38 -10 -77 -10 -69 0 -135
-22 -135 -45 0 -21 33 -21 70 0 44 25 85 27 127 6 49 -25 89 -29 96 -11 11 28
-26 108 -58 128 -16 10 -32 17 -35 16 -3 0 -20 -3 -37 -5z"/>
<path d="M23 2132 c-17 -2 -23 -10 -23 -27 0 -29 24 -24 41 7 13 23 11 25 -18
20z"/>
<path d="M1656 2013 c-61 -20 -56 -23 33 -21 80 3 84 2 107 -25 13 -15 24 -40
24 -55 0 -37 16 -60 30 -46 17 17 -5 88 -39 126 -22 25 -36 32 -72 33 -24 1
-62 -4 -83 -12z"/>
<path d="M1676 1971 c-3 -5 10 -33 30 -63 20 -29 40 -62 45 -73 5 -14 8 -3 8
36 1 53 -1 58 -33 83 -38 29 -42 30 -50 17z"/>
<path d="M853 1483 c14 -16 32 -43 40 -62 14 -32 15 -33 22 -12 9 31 -11 76
-41 90 -41 18 -49 13 -21 -16z"/>
<path d="M165 1425 c39 -28 45 -36 45 -63 0 -25 -5 -35 -39 -92 -13 -23 -13
-23 40 -18 45 5 58 11 82 39 43 52 72 129 48 129 -5 0 -15 -16 -21 -35 -6 -19
-32 -53 -57 -75 -44 -39 -76 -54 -56 -27 23 31 33 85 23 113 -13 34 -27 44
-60 44 -24 -1 -24 -1 -5 -15z"/>
<path d="M101 1181 c-1 -7 -7 -11 -16 -7 -9 3 -15 0 -15 -8 0 -8 11 -16 25
-18 27 -6 28 -3 15 27 -5 11 -9 14 -9 6z"/>
<path d="M150 1070 c0 -10 6 -23 14 -27 15 -9 36 -46 36 -64 0 -7 -9 -9 -27
-5 -77 18 -81 17 -100 -7 -10 -13 -24 -22 -31 -19 -18 6 -16 -87 4 -167 17
-69 33 -99 35 -66 2 32 -1 48 -16 80 -13 29 -13 84 1 128 6 19 42 37 75 37 26
0 79 -53 79 -79 0 -11 -5 -32 -11 -48 l-11 -28 -10 26 c-11 33 -48 29 -48 -5
0 -29 10 -39 26 -25 8 7 14 7 19 -1 11 -18 22 -11 45 27 27 45 23 100 -10 178
-32 75 -70 110 -70 65z"/>
<path d="M111 641 c-22 -14 -2 -69 60 -170 l52 -84 29 31 c15 18 28 39 28 47
0 21 -59 126 -88 158 -26 27 -55 34 -81 18z"/>
</g>
</svg>
